<?xml version="1.0" encoding="UTF-8"?>
<svg width="92px" height="102px" viewBox="0 0 92 102" version="1.1" xmlns="http://www.w3.org/2000/svg" xmlns:xlink="http://www.w3.org/1999/xlink">
    <!-- Generator: Sketch 51.2 (57519) - http://www.bohemiancoding.com/sketch -->
    <title>backpack-icon</title>
    <desc>Created with Sketch.</desc>
    <defs></defs>
    <g id="Page-1" stroke="none" stroke-width="1" fill="none" fill-rule="evenodd" stroke-linecap="round" stroke-linejoin="round">
        <g id="TRV:L" transform="translate(-674.000000, -1030.000000)" stroke="#000000" stroke-width="4">
            <g id="Group-8" transform="translate(268.000000, 880.000000)">
                <g id="backpack-icon" transform="translate(408.000000, 151.000000)">
                    <path d="M43.613,12.7417 C60.288,12.7417 73.806,26.2597 73.806,42.9347 L73.806,94.9357 C73.806,96.7877 72.304,98.2897 70.451,98.2897 L16.774,98.2897 C14.921,98.2897 13.419,96.7877 13.419,94.9357 L13.419,42.9347 C13.419,26.2597 26.937,12.7417 43.613,12.7417 Z" id="Stroke-1"></path>
                    <path d="M26.8386,66.4189 L60.3866,66.4189 C64.0926,66.4189 67.0966,69.4229 67.0966,73.1289 L67.0966,84.8709 C67.0966,88.5759 64.0926,91.5799 60.3866,91.5799 L26.8386,91.5799 C23.1326,91.5799 20.1296,88.5759 20.1296,84.8709 L20.1296,73.1289 C20.1296,69.4229 23.1326,66.4189 26.8386,66.4189 Z" id="Stroke-3"></path>
                    <path d="M60.3869,7.7094 L60.3869,17.7734 L60.2859,17.7734 C58.6189,16.6634 56.8429,15.7244 54.9859,14.9724 L55.2039,14.4184 L55.3549,14.4184 L55.3549,8.1284 C55.3729,7.5904 55.1769,7.0664 54.8079,6.6734 C54.4399,6.2804 53.9309,6.0494 53.3919,6.0314 L33.8329,6.0314 C33.2949,6.0494 32.7849,6.2804 32.4179,6.6734 C32.0499,7.0664 31.8529,7.5904 31.8709,8.1284 L31.8709,14.4184 L32.0219,14.4184 L32.2399,14.9724 C30.3759,15.7114 28.5989,16.6504 26.9399,17.7734 L26.8388989,17.7734 L26.8389,7.7094 C26.8379,5.9294 27.5449,4.2224 28.8039,2.9644 C30.0619,1.7064 31.7689,0.9994 33.5489,0.9994 L53.6779,0.9994 C55.4569,0.9994 57.1639,1.7064 58.4229,2.9644 C59.6809,4.2224 60.3869,5.9294 60.3869,7.7094 Z" id="Stroke-5"></path>
                    <path d="M20.1291,44.6128 C20.1291,30.7388 30.6641,19.4508 43.6131,19.4508 C56.5621,19.4508 67.0971,30.7388 67.0971,44.6128" id="Stroke-7"></path>
                    <path d="M60.2863,17.7739 L60.3873,17.7739 L60.3873,7.7099 C60.3873,5.9299 59.6813,4.2229 58.4223,2.9639 C57.1633,1.7059 55.4573,0.9989 53.6773,0.9999 L33.5483,0.9999 C31.7683,0.9989 30.0613,1.7059 28.8033,2.9639 C27.5453,4.2229 26.8383,5.9299 26.8383,7.7099 L26.8383,17.7739 L26.9393,17.7739" id="Stroke-9"></path>
                    <path d="M55.1985,14.4189 L55.3545,14.4189 L55.3545,8.1289 C55.3925,7.0099 54.5165,6.0719 53.3975,6.0319 L33.8275,6.0319 C32.7095,6.0719 31.8335,7.0099 31.8705,8.1289 L31.8705,14.4189 L32.0275,14.4189" id="Stroke-11"></path>
                    <path d="M33.5486,32.8706 L53.6776,32.8706 C56.4566,32.8706 58.7096,35.1236 58.7096,37.9026 L58.7096,58.0316 C58.7096,58.9586 57.9586,59.7096 57.0326,59.7096 L30.1936,59.7096 C29.2676,59.7096 28.5166,58.9586 28.5166,58.0316 L28.5166,37.9026 C28.5166,35.1236 30.7696,32.8706 33.5486,32.8706 Z" id="Stroke-13"></path>
                    <path d="M33.5486,32.8706 L53.6776,32.8706 C56.4566,32.8706 58.7096,35.1236 58.7096,37.9026 L58.7096,58.0316 C58.7096,58.9586 57.9586,59.7096 57.0326,59.7096 L30.1936,59.7096 C29.2676,59.7096 28.5166,58.9586 28.5166,58.0316 L28.5166,37.9026 C28.5166,35.1236 30.7696,32.8706 33.5486,32.8706 Z" id="Stroke-15"></path>
                    <path d="M28.5163,41.2578 L58.7093,41.2578" id="Stroke-17"></path>
                    <path d="M38.5808,52.9995 C36.7278,52.9995 35.2258,51.9485 35.2258,50.6515 L35.2258,45.9545 L38.5808,41.2575 L41.9348,45.9545 L41.9348,50.6515 C41.9348,51.9485 40.4338,52.9995 38.5808,52.9995 Z" id="Stroke-19"></path>
                    <path d="M36.903,84.8711 C35.05,84.8711 33.549,83.8191 33.549,82.5221 L33.549,77.8251 L36.903,73.1291 L40.258,77.8251 L40.258,82.5221 C40.258,83.8191 38.756,84.8711 36.903,84.8711 Z" id="Stroke-21"></path>
                    <path d="M20.1291,73.1289 L67.0971,73.1289" id="Stroke-23"></path>
                    <path d="M1.6775,71.4511 L13.4195,71.4511 L13.4195,93.2581 L3.3545,93.2581 C2.4285,93.2581 1.6775,92.5071 1.6775,91.5801 L1.6775,71.4511 Z" id="Stroke-25"></path>
                    <path d="M83.8713,93.2578 L73.8073,93.2578 L73.8073,71.4508 L85.5483,71.4508 L85.5483,91.5798 C85.5483,92.5068 84.7973,93.2578 83.8713,93.2578 Z" id="Stroke-27"></path>
                    <path d="M6.7097,58.0317 L13.4187,58.0317 L13.4187,71.4507 L0.0007,71.4507 L0.0007,64.7417 C0.0007,61.0357 3.0037,58.0317 6.7097,58.0317 Z" id="Stroke-29"></path>
                    <path d="M87.2258,71.4511 L73.8068,71.4511 L73.8068,58.0321 L80.5158,58.0321 C84.2218,58.0321 87.2258,61.0361 87.2258,64.7421 L87.2258,71.4511 Z" id="Stroke-31"></path>
                </g>
            </g>
        </g>
    </g>
</svg>