<?xml version="1.0" encoding="UTF-8"?>
<svg width="97px" height="83px" viewBox="0 0 97 83" version="1.1" xmlns="http://www.w3.org/2000/svg" xmlns:xlink="http://www.w3.org/1999/xlink">
    <!-- Generator: Sketch 51.2 (57519) - http://www.bohemiancoding.com/sketch -->
    <title>mobile-home-icon</title>
    <desc>Created with Sketch.</desc>
    <defs></defs>
    <g id="Page-1" stroke="none" stroke-width="1" fill="none" fill-rule="evenodd" stroke-linecap="round" stroke-linejoin="round">
        <g id="TRV:L" transform="translate(-378.000000, -1039.000000)" stroke="#000000" stroke-width="4">
            <g id="Group-8" transform="translate(268.000000, 880.000000)">
                <g id="mobile-home-icon" transform="translate(112.000000, 161.000000)">
                    <path d="M17.6222,67.1631 L12.7932,67.1631 C9.3992,67.1641 6.1452,65.8161 3.7462,63.4171 C1.3472,61.0171 -0.0008,57.7631 0.0002,54.3701 L0.0002,38.3791 C-0.0028,29.8951 3.3662,21.7601 9.3652,15.7611 C15.3632,9.7631 23.4992,6.3931 31.9822,6.3961 L46.3742,6.3961 C53.5842,6.3951 60.4992,9.2601 65.5982,14.3581 C70.6962,19.4561 73.5602,26.3711 73.5592,33.5811 L73.5592003,67.1631006 L38.3782,67.1631" id="Stroke-1"></path>
                    <path d="M27.9845,57.5684 C33.7255,57.5684 38.3785,62.2214 38.3785,67.9624 C38.3785,73.7034 33.7255,78.3564 27.9845,78.3564 C22.2435,78.3564 17.5905,73.7034 17.5905,67.9624 C17.5905,62.2214 22.2435,57.5684 27.9845,57.5684 Z" id="Stroke-3"></path>
                    <path d="M27.9845,63.9649 C30.1925,63.9649 31.9825,65.7539 31.9825,67.9619 C31.9825,70.1699 30.1925,71.9599 27.9845,71.9599 C25.7765,71.9599 23.9865,70.1699 23.9865,67.9619 C23.9865,65.7539 25.7765,63.9649 27.9845,63.9649 Z" id="Stroke-5"></path>
                    <path d="M73.5592,60.7666 L89.5502,60.7666 C91.3172,60.7666 92.7482,62.1986 92.7482,63.9646 C92.7482,65.7306 91.3172,67.1626 89.5502,67.1626 L73.5592,67.1626 L73.5592,60.7666 Z" id="Stroke-7"></path>
                    <path d="M87.9513,60.7666 L87.9513,57.5686" id="Stroke-9"></path>
                    <path d="M49.5724,30.3829 L62.3654,30.3829 C64.1324,30.3829 65.5634,31.8159 65.5634,33.5809 L65.5634,67.1629 L46.3744,67.1629 L46.3744,33.5809 C46.3744,31.8159 47.8064,30.3829 49.5724,30.3829 Z" id="Stroke-11"></path>
                    <path d="M33.5812,0 L43.1762,0 C44.9422,0 46.3742,1.432 46.3742,3.198 L46.3742,6.396 L30.3832,6.396 L30.3832,3.198 C30.3832,1.432 31.8152,0 33.5812,0 Z" id="Stroke-13"></path>
                    <path d="M11.194,31.9825 L33.581,31.9825 C35.348,31.9825 36.779,33.4145 36.779,35.1805 L36.779,46.3745 C36.779,48.1405 35.348,49.5725 33.581,49.5725 L11.194,49.5725 C9.427,49.5725 7.996,48.1405 7.996,46.3745 L7.996,35.1805 C7.996,33.4145 9.427,31.9825 11.194,31.9825 Z" id="Stroke-15"></path>
                    <path d="M22.3878,31.9825 L22.3878,36.7795" id="Stroke-17"></path>
                    <path d="M22.3878,43.1758 L22.3878,49.5718" id="Stroke-19"></path>
                    <path d="M57.568,49.5723 L59.167,49.5723" id="Stroke-21"></path>
                    <path d="M0.0001,78.3565 L73.5591,78.3565" id="Stroke-23"></path>
                    <path d="M79.9557,78.3565 L92.7487,78.3565" id="Stroke-25"></path>
                    <path d="M87.9513,67.1631 L87.9513,70.3611" id="Stroke-27"></path>
                    <path d="M87.9513,71.96 C89.7183,71.96 91.1493,73.392 91.1493,75.158 C91.1493,76.925 89.7183,78.356 87.9513,78.356 C86.1853,78.356 84.7533,76.925 84.7533,75.158 C84.7533,73.392 86.1853,71.96 87.9513,71.96 Z" id="Stroke-29"></path>
                </g>
            </g>
        </g>
    </g>
</svg>