<?xml version="1.0" encoding="UTF-8"?>
<svg width="79px" height="32px" viewBox="0 0 79 32" version="1.1" xmlns="http://www.w3.org/2000/svg" xmlns:xlink="http://www.w3.org/1999/xlink">
    <!-- Generator: Sketch 51.2 (57519) - http://www.bohemiancoding.com/sketch -->
    <title>paperclip-icon</title>
    <desc>Created with Sketch.</desc>
    <defs></defs>
    <g id="Page-1" stroke="none" stroke-width="1" fill="none" fill-rule="evenodd">
        <g id="TRV:L" transform="translate(-144.000000, -1654.000000)" fill="#000000">
            <path d="M163.307471,1698.45603 C161.934794,1698.45603 160.614133,1698.17526 159.345447,1697.61371 C158.076761,1697.05216 156.922482,1696.25145 155.882575,1695.21154 C153.594781,1692.92374 152.4509,1690.14724 152.4509,1686.88193 C152.4509,1683.61662 153.594781,1680.84011 155.882575,1678.55232 L191.759174,1640.49193 C193.131851,1639.07765 194.681288,1638.04816 196.407533,1637.40342 C198.133778,1636.75868 199.901593,1636.48831 201.711031,1636.5923 C203.520468,1636.69629 205.31948,1637.17464 207.108119,1638.02736 C208.896758,1638.88008 210.581382,1640.07596 212.16204,1641.61502 C213.534717,1643.02929 214.605805,1644.70352 215.375335,1646.63774 C216.144866,1648.57197 216.508828,1650.59976 216.467232,1652.72117 C216.425636,1654.84258 216.009679,1656.85997 215.21935,1658.77339 C214.429021,1660.68682 213.347534,1662.35065 211.974858,1663.76492 L184.833431,1692.59099 C184.459064,1693.00695 184.001512,1693.22533 183.460761,1693.24613 C182.920009,1693.26692 182.441659,1693.09014 182.025697,1692.71578 C181.65133,1692.34141 181.453751,1691.87346 181.432953,1691.31191 C181.412155,1690.75036 181.588936,1690.26161 181.963303,1689.84565 L209.10473,1661.01958 C210.144636,1659.93808 210.955751,1658.66941 211.538099,1657.21354 C212.120447,1655.75767 212.432414,1654.23943 212.47401,1652.65877 C212.47401,1651.07811 212.203639,1649.57027 211.662887,1648.1352 C211.122136,1646.70013 210.331819,1645.48346 209.291912,1644.48515 C207.378484,1642.53012 205.02833,1641.25106 202.24138,1640.64791 C199.454431,1640.04477 196.917097,1640.90788 194.629302,1643.23727 L158.752703,1681.29766 C157.213641,1682.83672 156.444122,1684.68773 156.444122,1686.85073 C156.444122,1689.01374 157.213641,1690.86474 158.752703,1692.40381 C159.45984,1693.11094 160.229359,1693.64129 161.061284,1693.99485 C161.893209,1694.34842 162.766718,1694.48361 163.681836,1694.40042 C164.555357,1694.35882 165.439265,1694.11964 166.333584,1693.68288 C167.227904,1693.24612 168.049418,1692.63259 168.798151,1691.84226 L197.312248,1661.51873 C197.852999,1660.97798 198.424939,1660.15647 199.028085,1659.05417 C199.631231,1657.95187 199.392056,1656.88078 198.310553,1655.84087 C197.728205,1655.21693 197.229058,1654.87376 196.813095,1654.81137 C196.397132,1654.74897 196.126761,1654.71778 196.001972,1654.71778 C195.627606,1654.75937 195.211649,1654.91536 194.75409,1655.18573 C194.296531,1655.45611 193.818181,1655.82007 193.319026,1656.27763 L171.855461,1679.11387 C171.481095,1679.52983 171.023542,1679.73781 170.482791,1679.73781 C169.94204,1679.73781 169.46369,1679.55063 169.047727,1679.17626 C168.631764,1678.80189 168.423786,1678.34434 168.423786,1677.80359 C168.423786,1677.26284 168.610967,1676.78449 168.985333,1676.36853 L190.448898,1653.4699 C191.32242,1652.63797 192.185529,1651.99324 193.038253,1651.53568 C193.890976,1651.07812 194.754086,1650.80775 195.627607,1650.72456 C196.334744,1650.68296 197.166657,1650.78695 198.123371,1651.03653 C199.080085,1651.2861 200.07838,1651.93084 201.118287,1652.97074 C202.698945,1654.50981 203.395672,1656.31922 203.208489,1658.39903 C203.021306,1660.47884 202.012611,1662.43384 200.182376,1664.26407 L171.668279,1694.64999 C170.54518,1695.77309 169.318108,1696.657 167.987028,1697.30174 C166.655947,1697.94648 165.283291,1698.31045 163.869018,1698.39364 C163.785825,1698.39364 163.692235,1698.40404 163.588245,1698.42483 C163.484254,1698.44563 163.390664,1698.45603 163.307471,1698.45603 Z" id="paperclip-icon" transform="translate(184.460666, 1667.513331) rotate(-313.000000) translate(-184.460666, -1667.513331) "></path>
        </g>
    </g>
</svg>