<?xml version="1.0" encoding="UTF-8"?>
<svg width="70px" height="93px" viewBox="0 0 70 93" version="1.1" xmlns="http://www.w3.org/2000/svg" xmlns:xlink="http://www.w3.org/1999/xlink">
    <!-- Generator: Sketch 51.2 (57519) - http://www.bohemiancoding.com/sketch -->
    <title>survival-icon</title>
    <desc>Created with Sketch.</desc>
    <defs>
        <polygon id="path-1" points="0 93 70 93 70 0 0 0"></polygon>
    </defs>
    <g id="Page-1" stroke="none" stroke-width="1" fill="none" fill-rule="evenodd">
        <g id="TRV:L" transform="translate(-975.000000, -1040.000000)">
            <g id="Group-8" transform="translate(268.000000, 880.000000)">
                <g id="survival-icon" transform="translate(707.000000, 160.000000)">
                    <path d="M20.5307517,28 L66.4692483,28 C67.3143508,28 68,28.6880328 68,29.5370732 L68,89.4639269 C68,90.3129673 67.3143508,91 66.4692483,91 L20.5307517,91 C19.6846526,91 19,90.3129673 19,89.4639269 L19,29.5370732 C19,28.6880328 19.6846526,28 20.5307517,28 Z" id="Stroke-1" stroke="#000000" stroke-width="4" stroke-linecap="round" stroke-linejoin="round"></path>
                    <path d="M23.0666667,2 L62.9333333,2 C64.6268359,2 66,3.3686306 66,5.05876498 L66,28 L20,28 L20,5.05876498 C20,3.3686306 21.3731641,2 23.0666667,2 Z" id="Stroke-3" stroke="#000000" stroke-width="4" stroke-linecap="round" stroke-linejoin="round"></path>
                    <mask id="mask-2" fill="white">
                        <use xlink:href="#path-1"></use>
                    </mask>
                    <g id="Clip-6"></g>
                    <polygon id="Stroke-5" stroke="#000000" stroke-width="4" stroke-linecap="round" stroke-linejoin="round" mask="url(#mask-2)" points="19 80 68 80 68 39 19 39"></polygon>
                    <path d="M34.4995119,8 C36.9850309,8 39,10.6856492 39,14 C39,17.3143508 36.9850309,20 34.4995119,20 C32.0149691,20 30,17.3143508 30,14 C30,10.6856492 32.0149691,8 34.4995119,8 Z" id="Stroke-7" stroke="#000000" stroke-width="4" stroke-linecap="round" stroke-linejoin="round" mask="url(#mask-2)"></path>
                    <path d="M6.49951188,24 C8.98503091,24 11,26.6856492 11,30 C11,33.3133746 8.98503091,36 6.49951188,36 C4.01496909,36 2,33.3133746 2,30 C2,26.6856492 4.01496909,24 6.49951188,24 Z" id="Stroke-8" stroke="#000000" stroke-width="4" stroke-linecap="round" stroke-linejoin="round" mask="url(#mask-2)"></path>
                    <path d="M43.5,8 C45.9857887,8 48,10.6856492 48,14 C48,17.3143508 45.9857887,20 43.5,20 C41.0142113,20 39,17.3143508 39,14 C39,10.6856492 41.0142113,8 43.5,8 Z" id="Stroke-9" stroke="#000000" stroke-width="4" stroke-linecap="round" stroke-linejoin="round" mask="url(#mask-2)"></path>
                    <path d="M34,20 L34,28" id="Stroke-10" stroke="#000000" stroke-width="4" stroke-linecap="round" stroke-linejoin="round" mask="url(#mask-2)"></path>
                    <path d="M25,20 L25,28" id="Stroke-11" stroke="#000000" stroke-width="4" stroke-linecap="round" stroke-linejoin="round" mask="url(#mask-2)"></path>
                    <path d="M24.5004881,8 C26.9850309,8 29,10.6856492 29,14 C29,17.3143508 26.9850309,20 24.5004881,20 C22.0149691,20 20,17.3143508 20,14 C20,10.6856492 22.0149691,8 24.5004881,8 Z" id="Stroke-12" stroke="#000000" stroke-width="4" stroke-linecap="round" stroke-linejoin="round" mask="url(#mask-2)"></path>
                    <path d="M52.5004881,8 C54.9850309,8 57,10.6856492 57,14 C57,17.3143508 54.9850309,20 52.5004881,20 C50.0149691,20 48,17.3143508 48,14 C48,10.6856492 50.0149691,8 52.5004881,8 Z" id="Stroke-13" stroke="#000000" stroke-width="4" stroke-linecap="round" stroke-linejoin="round" mask="url(#mask-2)"></path>
                    <path d="M53,20 L53,28" id="Stroke-14" stroke="#000000" stroke-width="4" stroke-linecap="round" stroke-linejoin="round" mask="url(#mask-2)"></path>
                    <path d="M61.4995119,8 C63.9850309,8 66,10.6856492 66,14 C66,17.3143508 63.9850309,20 61.4995119,20 C59.0149691,20 57,17.3143508 57,14 C57,10.6856492 59.0149691,8 61.4995119,8 Z" id="Stroke-15" stroke="#000000" stroke-width="4" stroke-linecap="round" stroke-linejoin="round" mask="url(#mask-2)"></path>
                    <path d="M62,20 L62,28" id="Stroke-16" stroke="#000000" stroke-width="4" stroke-linecap="round" stroke-linejoin="round" mask="url(#mask-2)"></path>
                    <path d="M43,20 L43,28" id="Stroke-17" stroke="#000000" stroke-width="4" stroke-linecap="round" stroke-linejoin="round" mask="url(#mask-2)"></path>
                    <path d="M9.96973641,34 L10,34 L10,82.9402397 C10,84.630374 8.65668728,86 7,86 C5.34331272,86 4,84.630374 4,82.9402397 L4,34 L4.03026359,34" id="Stroke-18" stroke="#000000" stroke-width="4" stroke-linecap="round" stroke-linejoin="round" mask="url(#mask-2)"></path>
                    <path d="M40.375,48.5629449 L40.375,54.8126907 C40.375,55.676022 39.6763749,56.3756356 38.8130085,56.3756356 L32.5630085,56.3756356 C31.699642,56.3756356 31,57.0752491 31,57.9375636 L31,61.0624364 C31,61.9257677 31.699642,62.6253813 32.5630085,62.6253813 L38.8130085,62.6253813 C39.6763749,62.6253813 40.375,63.3249949 40.375,64.1873093 L40.375,70.438072 C40.375,71.2993695 41.074642,72 41.9380085,72 L45.0630085,72 C45.925358,72 46.625,71.2993695 46.625,70.438072 L46.625,64.1873093 C46.625,63.3249949 47.324642,62.6253813 48.1880085,62.6253813 L54.4380085,62.6253813 C55.300358,62.6253813 56,61.9257677 56,61.0624364 L56,57.9375636 C56,57.0752491 55.300358,56.3756356 54.4380085,56.3756356 L48.1880085,56.3756356 C47.324642,56.3756356 46.625,55.676022 46.625,54.8126907 L46.625,48.5629449 C46.625,47.6996136 45.925358,47 45.0630085,47 L41.9380085,47 C41.074642,47 40.375,47.6996136 40.375,48.5629449 Z" id="Stroke-19" stroke="#000000" stroke-width="4" stroke-linecap="round" stroke-linejoin="round" mask="url(#mask-2)"></path>
                </g>
            </g>
        </g>
    </g>
</svg>