<?xml version="1.0" encoding="UTF-8"?>
<svg width="106px" height="26px" viewBox="0 0 106 26" version="1.1" xmlns="http://www.w3.org/2000/svg" xmlns:xlink="http://www.w3.org/1999/xlink">
    <!-- Generator: Sketch 51.2 (57519) - http://www.bohemiancoding.com/sketch -->
    <title>TRV:L</title>
    <desc>Created with Sketch.</desc>
    <defs>
        <path d="M102,13 L124,13 L124,18.6005706 L116.312812,18.6005706 L116.312812,39 L109.613977,39 L109.613977,18.6005706 L102,18.6005706 L102,13 Z M142.41879,39 L138.683121,31.8045649 L133.702229,31.8045649 L133.702229,39 L127,39 L127,13 L138.536624,13 C141.930484,13 144.561296,13.7974243 146.42914,15.3922967 C148.296984,16.9871692 149.230892,19.231084 149.230892,22.1241084 C149.230892,24.0775181 148.840237,25.7650904 148.058917,27.1868759 C147.277597,28.6086614 146.142258,29.7151649 144.652866,30.5064194 L150,39 L142.41879,39 Z M134,26 L138.788,26 C140.132007,26 141.169996,25.6527167 141.902,24.9581395 C142.634004,24.2635624 143,23.2589213 143,21.944186 C143,20.6790634 142.634004,19.7054298 141.902,19.0232558 C141.169996,18.3410819 140.132007,18 138.788,18 L134,18 L134,26 Z M151,13 L158.226902,13 L164.646739,31.8045649 L171.103261,13 L178,13 L167.94837,39 L160.978261,39 L151,13 Z M182.982456,22 C183.871349,22 184.596488,22.2774539 185.157895,22.8323699 C185.719301,23.387286 186,24.1040418 186,24.982659 C186,25.8612761 185.719301,26.5838122 185.157895,27.150289 C184.596488,27.7167658 183.871349,28 182.982456,28 C182.116955,28 181.403512,27.7167658 180.842105,27.150289 C180.280699,26.5838122 180,25.8612761 180,24.982659 C180,24.1040418 180.274851,23.387286 180.824561,22.8323699 C181.374272,22.2774539 182.093563,22 182.982456,22 Z M182.982456,33 C183.871349,33 184.596488,33.2774539 185.157895,33.8323699 C185.719301,34.387286 186,35.1040418 186,35.982659 C186,36.8612761 185.719301,37.5838122 185.157895,38.150289 C184.596488,38.7167658 183.871349,39 182.982456,39 C182.116955,39 181.403512,38.7167658 180.842105,38.150289 C180.280699,37.5838122 180,36.8612761 180,35.982659 C180,35.1040418 180.274851,34.387286 180.824561,33.8323699 C181.374272,33.2774539 182.093563,33 182.982456,33 Z M190,13 L196.8625,13 L196.8625,33.21398 L208,33.21398 L208,39 L190,39 L190,13 Z" id="path-1"></path>
        <filter x="-0.5%" y="-1.9%" width="100.9%" height="103.8%" filterUnits="objectBoundingBox" id="filter-2">
            <feOffset dx="1" dy="-1" in="SourceAlpha" result="shadowOffsetInner1"></feOffset>
            <feComposite in="shadowOffsetInner1" in2="SourceAlpha" operator="arithmetic" k2="-1" k3="1" result="shadowInnerInner1"></feComposite>
            <feColorMatrix values="0 0 0 0 0   0 0 0 0 0   0 0 0 0 0  0 0 0 0.5 0" type="matrix" in="shadowInnerInner1"></feColorMatrix>
        </filter>
    </defs>
    <g id="Page-1" stroke="none" stroke-width="1" fill="none" fill-rule="evenodd">
        <g id="TRV:L" transform="translate(-102.000000, -13.000000)">
            <g id="Group-5">
                <g id="TRV:L">
                    <use fill="#FFFFFF" fill-rule="evenodd" xlink:href="#path-1"></use>
                    <use fill="black" fill-opacity="1" filter="url(#filter-2)" xlink:href="#path-1"></use>
                </g>
            </g>
        </g>
    </g>
</svg>